<svg xmlns="http://www.w3.org/2000/svg" xmlns:xlink="http://www.w3.org/1999/xlink" width="1080" zoomAndPan="magnify" viewBox="0 0 810 809.999993" height="1080" preserveAspectRatio="xMidYMid meet" version="1.0"><defs><g/><clipPath id="46fa501033"><path d="M 21.582031 21.582031 L 788.082031 21.582031 L 788.082031 788.082031 L 21.582031 788.082031 Z M 21.582031 21.582031 " clip-rule="nonzero"/></clipPath><clipPath id="2ec4aed9fe"><path d="M 58.402344 58.402344 L 751.402344 58.402344 L 751.402344 751.402344 L 58.402344 751.402344 Z M 58.402344 58.402344 " clip-rule="nonzero"/></clipPath></defs><path fill="#ffffff" d="M 404.964844 0 C 516.800781 0 618.039062 45.328125 691.320312 118.609375 C 764.617188 191.902344 809.941406 293.140625 809.941406 404.964844 C 809.941406 516.789062 764.617188 618.039062 691.320312 691.320312 C 618.039062 764.617188 516.800781 809.941406 404.964844 809.941406 C 293.140625 809.941406 191.902344 764.617188 118.609375 691.320312 C 45.328125 618.039062 0 516.789062 0 404.964844 C 0 293.140625 45.328125 191.902344 118.609375 118.609375 C 191.902344 45.328125 293.140625 0 404.964844 0 Z M 659.507812 150.433594 C 594.375 85.285156 504.375 44.996094 404.964844 44.996094 C 305.570312 44.996094 215.566406 85.285156 150.433594 150.433594 C 85.285156 215.566406 44.996094 305.558594 44.996094 404.964844 C 44.996094 504.375 85.285156 594.375 150.433594 659.507812 C 215.566406 724.65625 305.570312 764.949219 404.964844 764.949219 C 504.375 764.949219 594.375 724.65625 659.507812 659.507812 C 724.65625 594.375 764.949219 504.375 764.949219 404.964844 C 764.949219 305.558594 724.65625 215.566406 659.507812 150.433594 " fill-opacity="1" fill-rule="nonzero"/><g fill="#ffffff" fill-opacity="1"><g transform="translate(309.738269, 644.041923)"><g><path d="M 99.125 -493.515625 C 114.125 -493.515625 126.894531 -488.238281 137.4375 -477.6875 C 147.976562 -467.144531 153.25 -454.378906 153.25 -439.390625 C 153.25 -424.390625 147.976562 -411.5 137.4375 -400.71875 C 126.894531 -389.9375 114.125 -384.546875 99.125 -384.546875 C 84.125 -384.546875 71.234375 -389.9375 60.453125 -400.71875 C 49.679688 -411.5 44.296875 -424.390625 44.296875 -439.390625 C 44.296875 -454.378906 49.679688 -467.144531 60.453125 -477.6875 C 71.234375 -488.238281 84.125 -493.515625 99.125 -493.515625 Z M 145.53125 -53.421875 C 145.53125 -26.710938 157.242188 -13.125 180.671875 -12.65625 L 180.671875 0 L 8.4375 0 L 8.4375 -12.65625 C 22.96875 -12.65625 33.394531 -15.9375 39.71875 -22.5 C 46.050781 -29.0625 49.21875 -40.539062 49.21875 -56.9375 L 49.21875 -269.953125 C 49.21875 -285.421875 46.171875 -296.550781 40.078125 -303.34375 C 33.984375 -310.144531 23.4375 -313.546875 8.4375 -313.546875 L 8.4375 -326.203125 L 145.53125 -326.203125 Z M 145.53125 -53.421875 "/></g></g></g><g clip-path="url(#46fa501033)"><path fill="#ffffff" d="M 404.964844 21.582031 C 510.839844 21.582031 606.683594 64.492188 676.058594 133.871094 C 745.445312 203.257812 788.355469 299.101562 788.355469 404.964844 C 788.355469 510.828125 745.445312 606.683594 676.058594 676.058594 C 606.683594 745.445312 510.839844 788.355469 404.964844 788.355469 C 299.101562 788.355469 203.257812 745.445312 133.871094 676.058594 C 64.492188 606.683594 21.582031 510.828125 21.582031 404.964844 C 21.582031 299.101562 64.492188 203.257812 133.871094 133.871094 C 203.257812 64.492188 299.101562 21.582031 404.964844 21.582031 Z M 645.941406 164 C 584.277344 102.324219 499.074219 64.179688 404.964844 64.179688 C 310.867188 64.179688 225.660156 102.324219 164 164 C 102.324219 225.660156 64.179688 310.855469 64.179688 404.964844 C 64.179688 499.074219 102.324219 584.277344 164 645.941406 C 225.660156 707.617188 310.867188 745.761719 404.964844 745.761719 C 499.074219 745.761719 584.277344 707.617188 645.941406 645.941406 C 707.617188 584.277344 745.761719 499.074219 745.761719 404.964844 C 745.761719 310.855469 707.617188 225.660156 645.941406 164 " fill-opacity="1" fill-rule="nonzero"/></g><g clip-path="url(#2ec4aed9fe)"><path fill="#ffffff" d="M 404.964844 58.402344 C 500.671875 58.402344 587.3125 97.191406 650.027344 159.90625 C 712.75 222.628906 751.539062 309.269531 751.539062 404.964844 C 751.539062 500.664062 712.75 587.3125 650.027344 650.027344 C 587.3125 712.75 500.671875 751.539062 404.964844 751.539062 C 309.269531 751.539062 222.628906 712.75 159.90625 650.027344 C 97.191406 587.3125 58.402344 500.664062 58.402344 404.964844 C 58.402344 309.269531 97.191406 222.628906 159.90625 159.90625 C 222.628906 97.191406 309.269531 58.402344 404.964844 58.402344 Z M 622.800781 187.140625 C 567.058594 131.386719 490.039062 96.90625 404.964844 96.90625 C 319.902344 96.90625 242.882812 131.386719 187.140625 187.140625 C 131.386719 242.882812 96.90625 319.894531 96.90625 404.964844 C 96.90625 490.039062 131.386719 567.058594 187.140625 622.800781 C 242.882812 678.550781 319.902344 713.035156 404.964844 713.035156 C 490.039062 713.035156 567.058594 678.550781 622.800781 622.800781 C 678.550781 567.058594 713.035156 490.039062 713.035156 404.964844 C 713.035156 319.894531 678.550781 242.882812 622.800781 187.140625 " fill-opacity="1" fill-rule="nonzero"/></g></svg>