<svg xmlns="http://www.w3.org/2000/svg" xmlns:xlink="http://www.w3.org/1999/xlink" width="1080" zoomAndPan="magnify" viewBox="0 0 810 809.999993" height="1080" preserveAspectRatio="xMidYMid meet" version="1.0"><defs><clipPath id="e42b8fcc40"><path d="M 341 543.609375 L 415 543.609375 L 415 623 L 341 623 Z M 341 543.609375 " clip-rule="nonzero"/></clipPath><clipPath id="2e669e1b0f"><path d="M 309 622 L 446.90625 622 L 446.90625 695.109375 L 309 695.109375 Z M 309 622 " clip-rule="nonzero"/></clipPath></defs><path fill="#ffffff" d="M 404.996094 420.15625 C 513.429688 420.15625 601.628906 305.074219 601.628906 196.648438 C 601.628906 88.226562 513.429688 0 404.996094 0 C 296.566406 0 208.355469 88.226562 208.355469 196.648438 C 208.375 305.0625 296.574219 420.15625 404.996094 420.15625 Z M 404.996094 420.15625 " fill-opacity="1" fill-rule="nonzero"/><path fill="#ffffff" d="M 552.613281 422.171875 C 514.472656 451.234375 466.890625 468.523438 415.347656 468.523438 L 394.644531 468.523438 C 343.09375 468.523438 295.503906 451.222656 257.371094 422.171875 C 132.828125 442.304688 37.722656 550.25 37.722656 680.464844 C 37.722656 751.996094 202.15625 810 404.996094 810 C 607.828125 810 772.269531 751.996094 772.269531 680.464844 C 772.269531 550.25 677.15625 442.304688 552.613281 422.171875 Z M 552.613281 422.171875 " fill-opacity="1" fill-rule="nonzero"/><g clip-path="url(#e42b8fcc40)"><path fill="#ffffff" d="M 377.898438 622.15625 C 398.171875 622.15625 414.660156 600.640625 414.660156 580.371094 C 414.660156 560.101562 398.171875 543.609375 377.898438 543.609375 C 357.628906 543.609375 341.136719 560.101562 341.136719 580.371094 C 341.140625 600.640625 357.628906 622.15625 377.898438 622.15625 Z M 377.898438 622.15625 " fill-opacity="1" fill-rule="nonzero"/></g><g clip-path="url(#2e669e1b0f)"><path fill="#ffffff" d="M 405.496094 622.53125 C 398.367188 627.964844 389.472656 631.199219 379.835938 631.199219 L 375.964844 631.199219 C 366.328125 631.199219 357.429688 627.964844 350.300781 622.53125 C 327.019531 626.296875 309.238281 646.476562 309.238281 670.820312 C 309.238281 684.195312 339.980469 695.039062 377.898438 695.039062 C 415.820312 695.039062 446.5625 684.195312 446.5625 670.820312 C 446.5625 646.476562 428.78125 626.296875 405.496094 622.53125 Z M 405.496094 622.53125 " fill-opacity="1" fill-rule="nonzero"/></g></svg>