<svg xmlns="http://www.w3.org/2000/svg" xmlns:xlink="http://www.w3.org/1999/xlink" width="1080" zoomAndPan="magnify" viewBox="0 0 810 809.999993" height="1080" preserveAspectRatio="xMidYMid meet" version="1.0"><defs><clipPath id="a27b2d23a2"><path d="M 48.816406 450.007812 L 96 450.007812 L 96 497 L 48.816406 497 Z M 48.816406 450.007812 " clip-rule="nonzero"/></clipPath></defs><path fill="#ffffff" d="M 328.25 1.457031 C 146.164062 3.449219 0.164062 152.710938 2.171875 334.800781 C 4.15625 516.867188 153.40625 662.875 335.503906 660.875 C 402.75 660.144531 468.160156 638.847656 522.988281 599.859375 L 711.308594 788.144531 C 732.871094 809.425781 767.636719 809.203125 788.917969 787.613281 C 809.984375 766.261719 809.984375 731.910156 788.917969 710.527344 L 600.597656 522.242188 C 706.140625 373.863281 671.382812 167.992188 522.988281 62.441406 C 466.136719 22.050781 397.976562 0.6875 328.25 1.457031 Z M 324.285156 58.519531 C 474.660156 54.320312 599.980469 172.796875 604.179688 323.195312 C 604.246094 325.84375 604.304688 328.488281 604.304688 331.125 C 604.359375 481.554688 482.445312 603.566406 332.027344 603.652344 C 181.589844 603.707031 59.574219 481.820312 59.503906 331.375 C 59.503906 331.296875 59.503906 331.226562 59.503906 331.140625 C 59.335938 183.546875 176.738281 62.648438 324.285156 58.519531 Z M 324.285156 58.519531 " fill-opacity="1" fill-rule="nonzero"/><path fill="#ffffff" d="M 258.359375 129.125 C 273.269531 123.792969 289.679688 131.535156 295.027344 146.445312 C 300.332031 161.246094 292.734375 177.570312 277.972656 183.03125 C 215.695312 205.695312 174.242188 264.890625 174.242188 331.152344 C 174.242188 347.003906 161.40625 359.839844 145.570312 359.839844 C 129.734375 359.839844 116.898438 347.003906 116.898438 331.152344 C 116.90625 240.777344 173.425781 160.035156 258.359375 129.125 Z M 258.359375 129.125 " fill-opacity="1" fill-rule="nonzero"/><g clip-path="url(#a27b2d23a2)"><path fill="#ffffff" d="M 67.851562 450.09375 C 57.292969 450.210938 48.828125 458.863281 48.945312 469.421875 C 49.058594 479.980469 57.714844 488.445312 68.273438 488.332031 C 72.171875 488.289062 75.964844 487.054688 79.144531 484.792969 L 90.0625 495.710938 C 91.316406 496.945312 93.332031 496.933594 94.566406 495.679688 C 95.785156 494.441406 95.785156 492.449219 94.566406 491.210938 L 83.644531 480.292969 C 89.765625 471.6875 87.75 459.75 79.144531 453.628906 C 75.847656 451.289062 71.894531 450.050781 67.851562 450.09375 Z M 67.621094 453.402344 C 76.34375 453.160156 83.609375 460.027344 83.851562 468.75 C 83.855469 468.902344 83.859375 469.058594 83.859375 469.210938 C 83.863281 477.933594 76.792969 485.007812 68.070312 485.011719 C 59.347656 485.015625 52.273438 477.949219 52.269531 469.222656 C 52.269531 469.21875 52.269531 469.214844 52.269531 469.210938 C 52.257812 460.652344 59.066406 453.640625 67.621094 453.402344 Z M 67.621094 453.402344 " fill-opacity="1" fill-rule="nonzero"/></g><path fill="#ffffff" d="M 63.800781 457.496094 C 64.664062 457.1875 65.617188 457.636719 65.925781 458.5 C 66.234375 459.359375 65.792969 460.304688 64.9375 460.621094 C 61.324219 461.9375 58.921875 465.371094 58.921875 469.210938 C 58.921875 470.128906 58.175781 470.875 57.257812 470.875 C 56.339844 470.875 55.597656 470.128906 55.597656 469.210938 C 55.597656 463.972656 58.875 459.289062 63.800781 457.496094 Z M 63.800781 457.496094 " fill-opacity="1" fill-rule="nonzero"/></svg>