<svg xmlns="http://www.w3.org/2000/svg" xmlns:xlink="http://www.w3.org/1999/xlink" width="1080" zoomAndPan="magnify" viewBox="0 0 810 809.999993" height="1080" preserveAspectRatio="xMidYMid meet" version="1.0"><defs><clipPath id="ca896f0a09"><path d="M 471.019531 452.261719 L 675.929688 452.261719 L 675.929688 781.59375 L 471.019531 781.59375 Z M 471.019531 452.261719 " clip-rule="nonzero"/></clipPath><clipPath id="94373cfb72"><path d="M 149.117188 452.261719 L 354.027344 452.261719 L 354.027344 781.59375 L 149.117188 781.59375 Z M 149.117188 452.261719 " clip-rule="nonzero"/></clipPath><clipPath id="5e3f6d893e"><path d="M 315.433594 452.261719 L 520.34375 452.261719 L 520.34375 596.617188 L 315.433594 596.617188 Z M 315.433594 452.261719 " clip-rule="nonzero"/></clipPath><clipPath id="fbed4abf3d"><path d="M 354 26.949219 L 752 26.949219 L 752 416 L 354 416 Z M 354 26.949219 " clip-rule="nonzero"/></clipPath><clipPath id="82b3b70b22"><path d="M 354.027344 81.148438 L 416.726562 18.449219 L 751.621094 353.34375 L 688.921875 416.042969 Z M 354.027344 81.148438 " clip-rule="nonzero"/></clipPath><clipPath id="f3292071b9"><path d="M 80 26.949219 L 468 26.949219 L 468 413.949219 L 80 413.949219 Z M 80 26.949219 " clip-rule="nonzero"/></clipPath><clipPath id="70ef79bc0e"><path d="M 407.1875 26.949219 L 467.226562 86.992188 L 140.828125 413.390625 L 80.789062 353.347656 Z M 407.1875 26.949219 " clip-rule="nonzero"/></clipPath><clipPath id="0136944fb8"><path d="M 149 275 L 399 275 L 399 524.949219 L 149 524.949219 Z M 149 275 " clip-rule="nonzero"/></clipPath><clipPath id="dc544447b2"><path d="M 324.128906 275.417969 L 398.132812 349.425781 L 223.121094 524.4375 L 149.113281 450.429688 Z M 324.128906 275.417969 " clip-rule="nonzero"/></clipPath><clipPath id="4baa365dda"><path d="M 426 275 L 676 275 L 676 524.949219 L 426 524.949219 Z M 426 275 " clip-rule="nonzero"/></clipPath><clipPath id="33dbdbb8cd"><path d="M 426.914062 349.421875 L 500.917969 275.417969 L 675.933594 450.429688 L 601.925781 524.4375 Z M 426.914062 349.421875 " clip-rule="nonzero"/></clipPath><clipPath id="59813416eb"><path d="M 342 307 L 592 307 L 592 556.949219 L 342 556.949219 Z M 342 307 " clip-rule="nonzero"/></clipPath><clipPath id="3cb1b659d7"><path d="M 342.722656 381.445312 L 416.730469 307.4375 L 591.742188 482.449219 L 517.738281 556.457031 Z M 342.722656 381.445312 " clip-rule="nonzero"/></clipPath><clipPath id="75c780fe5b"><path d="M 251 347 L 501 347 L 501 596.949219 L 251 596.949219 Z M 251 347 " clip-rule="nonzero"/></clipPath><clipPath id="9ba172f6f7"><path d="M 251.574219 421.601562 L 325.582031 347.59375 L 500.59375 522.605469 L 426.589844 596.613281 Z M 251.574219 421.601562 " clip-rule="nonzero"/></clipPath><clipPath id="77dec95c85"><path d="M 342 191 L 604 191 L 604 452.949219 L 342 452.949219 Z M 342 191 " clip-rule="nonzero"/></clipPath><clipPath id="857e2f13c6"><path d="M 342.722656 265.941406 L 416.726562 191.933594 L 603.050781 378.253906 L 529.042969 452.261719 Z M 342.722656 265.941406 " clip-rule="nonzero"/></clipPath><clipPath id="8b4f3d4ab3"><path d="M 177 191 L 482 191 L 482 494.949219 L 177 494.949219 Z M 177 191 " clip-rule="nonzero"/></clipPath><clipPath id="50d34b4300"><path d="M 407.191406 191.234375 L 481.199219 265.242188 L 251.894531 494.542969 L 177.886719 420.535156 Z M 407.191406 191.234375 " clip-rule="nonzero"/></clipPath><clipPath id="a407537d6d"><path d="M 410.648438 191.234375 L 414.398438 191.234375 L 414.398438 500.582031 L 410.648438 500.582031 Z M 410.648438 191.234375 " clip-rule="nonzero"/></clipPath><clipPath id="0f0b31258a"><path d="M 412.523438 191.234375 L 416.273438 191.234375 L 416.273438 500.582031 L 412.523438 500.582031 Z M 412.523438 191.234375 " clip-rule="nonzero"/></clipPath><clipPath id="ffec5b4de5"><path d="M 408.773438 191.933594 L 412.523438 191.933594 L 412.523438 501.28125 L 408.773438 501.28125 Z M 408.773438 191.933594 " clip-rule="nonzero"/></clipPath><clipPath id="33260c8a1d"><path d="M 160.542969 43.082031 L 263 43.082031 L 263 275.417969 L 160.542969 275.417969 Z M 160.542969 43.082031 " clip-rule="nonzero"/></clipPath></defs><g clip-path="url(#ca896f0a09)"><path fill="#ffffff" d="M 471.019531 452.261719 L 675.929688 452.261719 L 675.929688 781.242188 L 471.019531 781.242188 Z M 471.019531 452.261719 " fill-opacity="1" fill-rule="nonzero"/></g><g clip-path="url(#94373cfb72)"><path fill="#ffffff" d="M 149.117188 452.261719 L 354.027344 452.261719 L 354.027344 781.242188 L 149.117188 781.242188 Z M 149.117188 452.261719 " fill-opacity="1" fill-rule="nonzero"/></g><g clip-path="url(#5e3f6d893e)"><path fill="#ffffff" d="M 315.433594 452.261719 L 520.121094 452.261719 L 520.121094 596.617188 L 315.433594 596.617188 Z M 315.433594 452.261719 " fill-opacity="1" fill-rule="nonzero"/></g><g clip-path="url(#fbed4abf3d)"><g clip-path="url(#82b3b70b22)"><path fill="#ffffff" d="M 354.027344 81.148438 L 416.726562 18.449219 L 751.53125 353.253906 L 688.832031 415.953125 Z M 354.027344 81.148438 " fill-opacity="1" fill-rule="nonzero"/></g></g><g clip-path="url(#f3292071b9)"><g clip-path="url(#70ef79bc0e)"><path fill="#ffffff" d="M 407.1875 26.949219 L 467.226562 86.992188 L 140.757812 413.460938 L 80.71875 353.417969 Z M 407.1875 26.949219 " fill-opacity="1" fill-rule="nonzero"/></g></g><g clip-path="url(#0136944fb8)"><g clip-path="url(#dc544447b2)"><path fill="#ffffff" d="M 324.128906 275.417969 L 398.132812 349.425781 L 223.234375 524.324219 L 149.226562 450.316406 Z M 324.128906 275.417969 " fill-opacity="1" fill-rule="nonzero"/></g></g><g clip-path="url(#4baa365dda)"><g clip-path="url(#33dbdbb8cd)"><path fill="#ffffff" d="M 426.914062 349.421875 L 500.917969 275.417969 L 675.820312 450.316406 L 601.8125 524.324219 Z M 426.914062 349.421875 " fill-opacity="1" fill-rule="nonzero"/></g></g><g clip-path="url(#59813416eb)"><g clip-path="url(#3cb1b659d7)"><path fill="#ffffff" d="M 342.722656 381.445312 L 416.730469 307.4375 L 591.628906 482.335938 L 517.621094 556.34375 Z M 342.722656 381.445312 " fill-opacity="1" fill-rule="nonzero"/></g></g><g clip-path="url(#75c780fe5b)"><g clip-path="url(#9ba172f6f7)"><path fill="#ffffff" d="M 251.574219 421.601562 L 325.582031 347.59375 L 500.480469 522.492188 L 426.472656 596.5 Z M 251.574219 421.601562 " fill-opacity="1" fill-rule="nonzero"/></g></g><g clip-path="url(#77dec95c85)"><g clip-path="url(#857e2f13c6)"><path fill="#ffffff" d="M 342.722656 265.941406 L 416.726562 191.933594 L 603.191406 378.394531 L 529.183594 452.402344 Z M 342.722656 265.941406 " fill-opacity="1" fill-rule="nonzero"/></g></g><g clip-path="url(#8b4f3d4ab3)"><g clip-path="url(#50d34b4300)"><path fill="#ffffff" d="M 407.191406 191.234375 L 481.199219 265.242188 L 251.949219 494.488281 L 177.941406 420.480469 Z M 407.191406 191.234375 " fill-opacity="1" fill-rule="nonzero"/></g></g><g clip-path="url(#a407537d6d)"><path fill="#ffffff" d="M 410.648438 191.234375 L 414.398438 191.234375 L 414.398438 500.578125 L 410.648438 500.578125 Z M 410.648438 191.234375 " fill-opacity="1" fill-rule="nonzero"/></g><g clip-path="url(#0f0b31258a)"><path fill="#ffffff" d="M 412.523438 191.234375 L 416.273438 191.234375 L 416.273438 500.578125 L 412.523438 500.578125 Z M 412.523438 191.234375 " fill-opacity="1" fill-rule="nonzero"/></g><g clip-path="url(#ffec5b4de5)"><path fill="#ffffff" d="M 408.773438 191.933594 L 412.523438 191.933594 L 412.523438 501.28125 L 408.773438 501.28125 Z M 408.773438 191.933594 " fill-opacity="1" fill-rule="nonzero"/></g><g clip-path="url(#33260c8a1d)"><path fill="#ffffff" d="M 160.542969 43.082031 L 263 43.082031 L 263 275.609375 L 160.542969 275.609375 Z M 160.542969 43.082031 " fill-opacity="1" fill-rule="nonzero"/></g></svg>