<svg xmlns="http://www.w3.org/2000/svg" xmlns:xlink="http://www.w3.org/1999/xlink" width="1080" zoomAndPan="magnify" viewBox="0 0 810 809.999993" height="1080" preserveAspectRatio="xMidYMid meet" version="1.0"><defs><clipPath id="bfa9f416c9"><path d="M 471.019531 425.3125 L 675.929688 425.3125 L 675.929688 754.644531 L 471.019531 754.644531 Z M 471.019531 425.3125 " clip-rule="nonzero"/></clipPath><clipPath id="f4fb0b7397"><path d="M 149.117188 425.3125 L 354.027344 425.3125 L 354.027344 754.644531 L 149.117188 754.644531 Z M 149.117188 425.3125 " clip-rule="nonzero"/></clipPath><clipPath id="eef2d13e14"><path d="M 315.433594 425.3125 L 520.34375 425.3125 L 520.34375 569.667969 L 315.433594 569.667969 Z M 315.433594 425.3125 " clip-rule="nonzero"/></clipPath><clipPath id="bb1ac3eb09"><path d="M 354 0 L 752 0 L 752 390 L 354 390 Z M 354 0 " clip-rule="nonzero"/></clipPath><clipPath id="7aa33f1e07"><path d="M 354.027344 54.199219 L 416.726562 -8.5 L 751.621094 326.394531 L 688.921875 389.09375 Z M 354.027344 54.199219 " clip-rule="nonzero"/></clipPath><clipPath id="0d17b47fbb"><path d="M 80 0 L 468 0 L 468 387 L 80 387 Z M 80 0 " clip-rule="nonzero"/></clipPath><clipPath id="76a11ef4ef"><path d="M 407.1875 0 L 467.226562 60.042969 L 140.828125 386.441406 L 80.789062 326.398438 Z M 407.1875 0 " clip-rule="nonzero"/></clipPath><clipPath id="af2acbaf12"><path d="M 149 248 L 399 248 L 399 498 L 149 498 Z M 149 248 " clip-rule="nonzero"/></clipPath><clipPath id="4d54e18afd"><path d="M 324.128906 248.46875 L 398.132812 322.476562 L 223.121094 497.488281 L 149.113281 423.480469 Z M 324.128906 248.46875 " clip-rule="nonzero"/></clipPath><clipPath id="3c7e08b488"><path d="M 426 248 L 676 248 L 676 498 L 426 498 Z M 426 248 " clip-rule="nonzero"/></clipPath><clipPath id="f283c0e37d"><path d="M 426.914062 322.472656 L 500.917969 248.46875 L 675.933594 423.480469 L 601.925781 497.488281 Z M 426.914062 322.472656 " clip-rule="nonzero"/></clipPath><clipPath id="ac9b3ff9f2"><path d="M 342 280 L 592 280 L 592 530 L 342 530 Z M 342 280 " clip-rule="nonzero"/></clipPath><clipPath id="407efbd40d"><path d="M 342.722656 354.496094 L 416.730469 280.488281 L 591.742188 455.5 L 517.738281 529.507812 Z M 342.722656 354.496094 " clip-rule="nonzero"/></clipPath><clipPath id="68c59fc1d0"><path d="M 251 320 L 501 320 L 501 570 L 251 570 Z M 251 320 " clip-rule="nonzero"/></clipPath><clipPath id="f3bb61751f"><path d="M 251.574219 394.652344 L 325.582031 320.644531 L 500.59375 495.65625 L 426.589844 569.664062 Z M 251.574219 394.652344 " clip-rule="nonzero"/></clipPath><clipPath id="c13602a4fa"><path d="M 342 164 L 604 164 L 604 426 L 342 426 Z M 342 164 " clip-rule="nonzero"/></clipPath><clipPath id="3bf4730c4e"><path d="M 342.722656 238.992188 L 416.726562 164.984375 L 603.050781 351.304688 L 529.042969 425.3125 Z M 342.722656 238.992188 " clip-rule="nonzero"/></clipPath><clipPath id="6fc27fb08e"><path d="M 177 164 L 482 164 L 482 468 L 177 468 Z M 177 164 " clip-rule="nonzero"/></clipPath><clipPath id="92cbca919d"><path d="M 407.191406 164.285156 L 481.199219 238.292969 L 251.894531 467.59375 L 177.886719 393.585938 Z M 407.191406 164.285156 " clip-rule="nonzero"/></clipPath><clipPath id="7bbb3a4918"><path d="M 410.648438 164.285156 L 414.398438 164.285156 L 414.398438 473.632812 L 410.648438 473.632812 Z M 410.648438 164.285156 " clip-rule="nonzero"/></clipPath><clipPath id="adfeba6ec2"><path d="M 412.523438 164.285156 L 416.273438 164.285156 L 416.273438 473.632812 L 412.523438 473.632812 Z M 412.523438 164.285156 " clip-rule="nonzero"/></clipPath><clipPath id="d42c86d9ce"><path d="M 408.773438 164.984375 L 412.523438 164.984375 L 412.523438 474.332031 L 408.773438 474.332031 Z M 408.773438 164.984375 " clip-rule="nonzero"/></clipPath><clipPath id="1edff08e89"><path d="M 160.542969 16.132812 L 263 16.132812 L 263 248.46875 L 160.542969 248.46875 Z M 160.542969 16.132812 " clip-rule="nonzero"/></clipPath></defs><g clip-path="url(#bfa9f416c9)"><path fill="#000000" d="M 471.019531 425.3125 L 675.929688 425.3125 L 675.929688 754.292969 L 471.019531 754.292969 Z M 471.019531 425.3125 " fill-opacity="1" fill-rule="nonzero"/></g><g clip-path="url(#f4fb0b7397)"><path fill="#000000" d="M 149.117188 425.3125 L 354.027344 425.3125 L 354.027344 754.292969 L 149.117188 754.292969 Z M 149.117188 425.3125 " fill-opacity="1" fill-rule="nonzero"/></g><g clip-path="url(#eef2d13e14)"><path fill="#000000" d="M 315.433594 425.3125 L 520.121094 425.3125 L 520.121094 569.667969 L 315.433594 569.667969 Z M 315.433594 425.3125 " fill-opacity="1" fill-rule="nonzero"/></g><g clip-path="url(#bb1ac3eb09)"><g clip-path="url(#7aa33f1e07)"><path fill="#000000" d="M 354.027344 54.199219 L 416.726562 -8.5 L 751.53125 326.304688 L 688.832031 389.003906 Z M 354.027344 54.199219 " fill-opacity="1" fill-rule="nonzero"/></g></g><g clip-path="url(#0d17b47fbb)"><g clip-path="url(#76a11ef4ef)"><path fill="#000000" d="M 407.1875 0 L 467.226562 60.042969 L 140.757812 386.511719 L 80.71875 326.46875 Z M 407.1875 0 " fill-opacity="1" fill-rule="nonzero"/></g></g><g clip-path="url(#af2acbaf12)"><g clip-path="url(#4d54e18afd)"><path fill="#000000" d="M 324.128906 248.46875 L 398.132812 322.476562 L 223.234375 497.375 L 149.226562 423.367188 Z M 324.128906 248.46875 " fill-opacity="1" fill-rule="nonzero"/></g></g><g clip-path="url(#3c7e08b488)"><g clip-path="url(#f283c0e37d)"><path fill="#000000" d="M 426.914062 322.472656 L 500.917969 248.46875 L 675.820312 423.367188 L 601.8125 497.375 Z M 426.914062 322.472656 " fill-opacity="1" fill-rule="nonzero"/></g></g><g clip-path="url(#ac9b3ff9f2)"><g clip-path="url(#407efbd40d)"><path fill="#000000" d="M 342.722656 354.496094 L 416.730469 280.488281 L 591.628906 455.386719 L 517.621094 529.394531 Z M 342.722656 354.496094 " fill-opacity="1" fill-rule="nonzero"/></g></g><g clip-path="url(#68c59fc1d0)"><g clip-path="url(#f3bb61751f)"><path fill="#000000" d="M 251.574219 394.652344 L 325.582031 320.644531 L 500.480469 495.542969 L 426.472656 569.550781 Z M 251.574219 394.652344 " fill-opacity="1" fill-rule="nonzero"/></g></g><g clip-path="url(#c13602a4fa)"><g clip-path="url(#3bf4730c4e)"><path fill="#000000" d="M 342.722656 238.992188 L 416.726562 164.984375 L 603.191406 351.445312 L 529.183594 425.453125 Z M 342.722656 238.992188 " fill-opacity="1" fill-rule="nonzero"/></g></g><g clip-path="url(#6fc27fb08e)"><g clip-path="url(#92cbca919d)"><path fill="#000000" d="M 407.191406 164.285156 L 481.199219 238.292969 L 251.949219 467.539062 L 177.941406 393.53125 Z M 407.191406 164.285156 " fill-opacity="1" fill-rule="nonzero"/></g></g><g clip-path="url(#7bbb3a4918)"><path fill="#000000" d="M 410.648438 164.285156 L 414.398438 164.285156 L 414.398438 473.628906 L 410.648438 473.628906 Z M 410.648438 164.285156 " fill-opacity="1" fill-rule="nonzero"/></g><g clip-path="url(#adfeba6ec2)"><path fill="#000000" d="M 412.523438 164.285156 L 416.273438 164.285156 L 416.273438 473.628906 L 412.523438 473.628906 Z M 412.523438 164.285156 " fill-opacity="1" fill-rule="nonzero"/></g><g clip-path="url(#d42c86d9ce)"><path fill="#000000" d="M 408.773438 164.984375 L 412.523438 164.984375 L 412.523438 474.332031 L 408.773438 474.332031 Z M 408.773438 164.984375 " fill-opacity="1" fill-rule="nonzero"/></g><g clip-path="url(#1edff08e89)"><path fill="#000000" d="M 160.542969 16.132812 L 263 16.132812 L 263 248.660156 L 160.542969 248.660156 Z M 160.542969 16.132812 " fill-opacity="1" fill-rule="nonzero"/></g></svg>